# xmcd
#
# Track frame offsets:
# 150
# 13282
# 29297
# 43347
# 56830
# 72636
# 84269
# 99697
# 112569
# 124124
# 140711
# 155124
#
# Disc length: 2247 seconds
#
#
# Revision: 0
# Processed by: cddbd v1.5.2PL0 Copyright (c) Steve Scherf et al.
# Submitted via: FreeRIP 2.951 
#
DISCID=ac08c50c
DTITLE=Linda Feller - Ich weiß genau was ich will
DYEAR=1900
DGENRE=
TTITLE0=Ich weiß genau was ich will
TTITLE1=Mitten ins Herz
TTITLE2=Schau in meine Augen
TTITLE3=Vergiß Nashville
TTITLE4=Spiel mir noch einmal das Lied
TTITLE5=Ich kann ohne Dich nicht leben
TTITLE6=Such Dir einen Regenbogen
TTITLE7=Zwei Fäuste und ein Whisky
TTITLE8=Himmel und Hölle
TTITLE9=Laut ruft mein Herz nach Dir
TTITLE10=Eileen
TTITLE11=Die Nacht die kommt gehört Dir nicht
EXTD=
EXTT0=
EXTT1=
EXTT2=
EXTT3=
EXTT4=
EXTT5=
EXTT6=
EXTT7=
EXTT8=
EXTT9=
EXTT10=
EXTT11=
PLAYORDER=
